<svg id="Capa_1" enable-background="new 0 0 512 512" height="512" viewBox="0 0 512 512" width="512" xmlns="http://www.w3.org/2000/svg" xmlns:xlink="http://www.w3.org/1999/xlink"><linearGradient id="SVGID_1_" gradientUnits="userSpaceOnUse" x1="256" x2="256" y1="451.75" y2="90.25"><stop offset="0" stop-color="#fd3a84"/><stop offset="1" stop-color="#ffa68d"/></linearGradient><linearGradient id="SVGID_2_" gradientUnits="userSpaceOnUse" x1="286" x2="286" y1="421" y2="0"><stop offset="0" stop-color="#ffc2cc"/><stop offset="1" stop-color="#fff2f4"/></linearGradient><g><g><g><path d="m346 30h-90c-8.291 0-15 6.709-15 15v15h-90v-15c0-8.291-6.709-15-15-15h-90c-8.291 0-15 6.709-15 15v452c0 8.291 6.709 15 15 15h300c8.291 0 15-6.709 15-15v-452c0-8.291-6.709-15-15-15zm45 333.701c0 31.199 12.297 60.599 34.501 82.798 2.699 3.001 6.599 4.501 10.499 4.501s7.8-1.5 10.499-4.501c22.204-22.199 34.501-51.599 34.501-82.798l-45-30zm45-272.701c-24.902 0-45 20.099-45 45v60l45 30 45-30v-60c0-24.901-20.098-45-45-45z" fill="url(#SVGID_1_)"/></g></g><g><g><path d="m136 90h120c8.291 0 15-6.709 15-15v-60c0-8.291-6.709-15-15-15h-120c-8.291 0-15 6.709-15 15v60c0 8.291 6.709 15 15 15zm60 151c8.291 0 15-6.709 15-15v-15h15c8.291 0 15-6.709 15-15s-6.709-15-15-15h-15v-15c0-8.291-6.709-15-15-15s-15 6.709-15 15v15h-15c-8.291 0-15 6.709-15 15s6.709 15 15 15h15v15c0 8.291 6.709 15 15 15zm90 30h-180c-8.291 0-15 6.709-15 15s6.709 15 15 15h180c8.291 0 15-6.709 15-15s-6.709-15-15-15zm0 60h-180c-8.291 0-15 6.709-15 15s6.709 15 15 15h180c8.291 0 15-6.709 15-15s-6.709-15-15-15zm0 60h-180c-8.291 0-15 6.709-15 15s6.709 15 15 15h180c8.291 0 15-6.709 15-15s-6.709-15-15-15zm105-195v167.701h90v-167.701z" fill="url(#SVGID_2_)"/></g></g></g></svg>